<svg xmlns="http://www.w3.org/2000/svg" viewBox="60 58 240 60" role="img" aria-label="Red Hat">
  <path fill="#e00" d="M111.268,94.221c4.805,0,11.757-.991,11.757-6.706.014-.441-.026-.882-.119-1.314l-2.861-12.429c-.661-2.735-1.241-3.975-6.042-6.376-3.726-1.905-11.841-5.051-14.242-5.051-2.235,0-2.885,2.881-5.55,2.881-2.566,0-4.471-2.151-6.871-2.151-2.305,0-3.806,1.571-4.966,4.801,0,0-3.23,9.111-3.645,10.432-.066.243-.094.494-.085.745,0,3.541,13.942,15.152,32.624,15.152M123.762,89.835c.664,3.146.664,3.476.664,3.891,0,5.377-6.046,8.362-13.992,8.362-17.96.012-33.692-10.512-33.692-17.468-.001-.968.196-1.926.58-2.815-6.46.323-14.822,1.475-14.822,8.857,0,12.091,28.649,26.994,51.333,26.994,17.391,0,21.778-7.866,21.778-14.077,0-4.886-4.225-10.432-11.841-13.743"/>
  <path fill="#000" d="M123.762,89.835c.664,3.146.664,3.476.664,3.891,0,5.377-6.046,8.362-13.992,8.362-17.96.012-33.692-10.512-33.692-17.468-.001-.968.196-1.926.58-2.815l1.406-3.48c-.064.238-.093.484-.085.73,0,3.541,13.942,15.152,32.624,15.152,4.805,0,11.757-.991,11.757-6.706.014-.441-.026-.882-.119-1.314l.857,3.649Z"/>
  <path fill="#fff" d="M284.979,97.797c0,4.567,2.746,6.787,7.755,6.787,1.542-.038,3.074-.255,4.567-.645v-5.297c-.954.302-1.949.453-2.95.446-2.063,0-2.827-.645-2.827-2.585v-8.116h5.976v-5.454h-5.976v-6.914l-6.53,1.413v5.5h-4.336v5.454h4.321v9.41ZM264.622,97.92c0-1.413,1.417-2.101,3.557-2.101,1.308.008,2.61.17,3.879.484v2.746c-1.251.683-2.658,1.031-4.083,1.01-2.097,0-3.353-.807-3.353-2.139M266.619,104.664c2.305,0,4.164-.484,5.9-1.655v1.294h6.46v-13.697c0-5.208-3.511-8.066-9.368-8.066-3.272,0-6.506.768-9.986,2.343l2.343,4.809c2.504-1.052,4.609-1.698,6.464-1.698,2.689,0,4.079,1.049,4.079,3.192v1.049c-1.583-.41-3.212-.614-4.847-.607-5.496,0-8.807,2.305-8.807,6.426,0,3.756,2.988,6.622,7.755,6.622M231.107,104.315h6.948v-11.081h11.634v11.069h6.967v-28.277h-6.94v10.866h-11.634v-10.866h-6.948l-.027,28.288ZM204.658,93.599c0-3.073,2.424-5.416,5.615-5.416,1.661-.034,3.273.559,4.517,1.659v7.471c-1.217,1.15-2.843,1.767-4.517,1.713-3.15,0-5.615-2.343-5.615-5.412M214.879,104.319h6.464v-29.705l-6.53,1.413v8.039c-1.662-.942-3.543-1.43-5.454-1.413-6.218,0-11.108,4.805-11.108,10.946-.074,5.992,4.723,10.91,10.715,10.984.064.001.129.001.193.001,2.061.01,4.07-.64,5.734-1.855l-.015,1.59ZM185.216,87.888c2.059,0,3.795,1.333,4.482,3.391h-8.911c.645-2.124,2.262-3.391,4.429-3.391M174.204,93.649c0,6.222,5.089,11.069,11.63,11.069,3.595,0,6.222-.972,8.93-3.234l-4.325-3.841c-1.01,1.052-2.504,1.617-4.279,1.617-2.284.064-4.372-1.284-5.254-3.391h15.229v-1.625c0-6.787-4.563-11.672-10.785-11.672-6.06-.091-11.046,4.747-11.138,10.807-.001.086-.002.173-.001.259M162.939,81.965c2.305,0,3.595,1.452,3.595,3.192s-1.291,3.192-3.595,3.192h-6.871v-6.384h6.871ZM149.112,104.303h6.948v-10.301h5.289l5.335,10.301h7.778l-6.222-11.311c3.235-1.316,5.345-4.466,5.331-7.958,0-5.089-3.998-9.007-9.986-9.007h-14.472v28.277Z"/>
</svg>
